<svg xmlns="http://www.w3.org/2000/svg" width="162.36" height="35" viewBox="0 0 162.36 35"><rect class="svg__rect" x="0" y="0" width="95.99" height="35" fill="#6E01AA"/><rect class="svg__rect" x="93.99" y="0" width="68.37" height="35" fill="#6E7173"/><path class="svg__text" d="M15.69 22L14.22 22L14.22 13.47L16.14 13.47L18.60 20.01L21.06 13.47L22.97 13.47L22.97 22L21.49 22L21.49 19.19L21.64 15.43L19.12 22L18.06 22L15.55 15.43L15.69 19.19L15.69 22ZM28.49 22L26.95 22L30.17 13.47L31.50 13.47L34.73 22L33.18 22L32.49 20.01L29.18 20.01L28.49 22ZM30.83 15.28L29.60 18.82L32.07 18.82L30.83 15.28ZM41.14 22L38.69 22L38.69 13.47L41.21 13.47Q42.34 13.47 43.21 13.97Q44.09 14.48 44.57 15.40Q45.05 16.33 45.05 17.52L45.05 17.52L45.05 17.95Q45.05 19.16 44.57 20.08Q44.08 21.00 43.19 21.50Q42.30 22 41.14 22L41.14 22ZM40.17 14.66L40.17 20.82L41.14 20.82Q42.30 20.82 42.93 20.09Q43.55 19.36 43.56 17.99L43.56 17.99L43.56 17.52Q43.56 16.13 42.96 15.40Q42.35 14.66 41.21 14.66L41.21 14.66L40.17 14.66ZM55.09 22L49.51 22L49.51 13.47L55.05 13.47L55.05 14.66L51.00 14.66L51.00 17.02L54.50 17.02L54.50 18.19L51.00 18.19L51.00 20.82L55.09 20.82L55.09 22ZM68.38 22L65.26 22L65.26 13.47L68.19 13.47Q69.64 13.47 70.39 14.05Q71.15 14.63 71.15 15.78L71.15 15.78Q71.15 16.36 70.83 16.83Q70.51 17.30 69.90 17.56L69.90 17.56Q70.60 17.75 70.97 18.26Q71.35 18.78 71.35 19.51L71.35 19.51Q71.35 20.71 70.58 21.36Q69.81 22 68.38 22L68.38 22ZM66.75 18.15L66.75 20.82L68.39 20.82Q69.09 20.82 69.48 20.47Q69.88 20.13 69.88 19.51L69.88 19.51Q69.88 18.18 68.52 18.15L68.52 18.15L66.75 18.15ZM66.75 14.66L66.75 17.06L68.20 17.06Q68.89 17.06 69.28 16.75Q69.67 16.43 69.67 15.86L69.67 15.86Q69.67 15.23 69.31 14.95Q68.95 14.66 68.19 14.66L68.19 14.66L66.75 14.66ZM77.86 18.86L75.00 13.47L76.64 13.47L78.61 17.51L80.57 13.47L82.21 13.47L79.35 18.86L79.35 22L77.86 22L77.86 18.86Z" fill="#FFFFFF"/><path class="svg__text" d="M110.56 22L108.18 22L108.18 13.60L110.56 13.60L110.56 22ZM115.30 17.80L115.30 17.80Q115.30 16.54 115.90 15.54Q116.50 14.55 117.55 13.99Q118.60 13.43 119.92 13.43L119.92 13.43Q121.07 13.43 122.00 13.84Q122.92 14.25 123.54 15.02L123.54 15.02L122.02 16.39Q121.21 15.40 120.04 15.40L120.04 15.40Q119.36 15.40 118.82 15.70Q118.29 16 118.00 16.54Q117.70 17.09 117.70 17.80L117.70 17.80Q117.70 18.51 118.00 19.05Q118.29 19.60 118.82 19.90Q119.36 20.20 120.04 20.20L120.04 20.20Q121.21 20.20 122.02 19.22L122.02 19.22L123.54 20.58Q122.93 21.35 122.00 21.76Q121.07 22.17 119.92 22.17L119.92 22.17Q118.60 22.17 117.55 21.61Q116.50 21.05 115.90 20.05Q115.30 19.06 115.30 17.80ZM132.61 22L128.07 22L128.07 13.60L132.37 13.60Q133.98 13.60 134.82 14.19Q135.66 14.79 135.66 15.79L135.66 15.79Q135.66 16.39 135.36 16.87Q135.07 17.34 134.53 17.62L134.53 17.62Q135.25 17.87 135.66 18.41Q136.06 18.94 136.06 19.70L136.06 19.70Q136.06 20.80 135.17 21.40Q134.29 22 132.61 22L132.61 22ZM130.43 18.58L130.43 20.28L132.42 20.28Q133.67 20.28 133.67 19.43L133.67 19.43Q133.67 18.58 132.42 18.58L132.42 18.58L130.43 18.58ZM130.43 15.31L130.43 16.94L132.05 16.94Q133.26 16.94 133.26 16.12L133.26 16.12Q133.26 15.31 132.05 15.31L132.05 15.31L130.43 15.31ZM142.98 22L140.78 22L140.78 13.60L142.74 13.60L145.69 18.45L148.57 13.60L150.52 13.60L150.55 22L148.37 22L148.34 17.55L146.18 21.17L145.13 21.17L142.98 17.67L142.98 22Z" fill="#FFFFFF" x="106.99"/></svg>